<svg xmlns="http://www.w3.org/2000/svg" width="32" height="32" viewBox="0 0 32 32" fill="none">
  <defs>
    <linearGradient id="kr-fav-grad" x1="7" y1="3" x2="25" y2="29" gradientUnits="userSpaceOnUse">
      <stop stop-color="#f59e0b" />
      <stop offset="1" stop-color="#fbbf24" />
    </linearGradient>
  </defs>
  <rect width="32" height="32" rx="8" fill="#0a0b0f" />
  <path
    d="M9 6.5h10.5L24 11v15.5A2.5 2.5 0 0 1 21.5 29H9a2.5 2.5 0 0 1-2.5-2.5V9A2.5 2.5 0 0 1 9 6.5z"
    fill="url(#kr-fav-grad)"
  />
  <path d="M19.5 6.5V11H24" fill="#fcd34d" opacity="0.85" />
  <g stroke="#0f172a" stroke-width="1.4" stroke-linecap="round">
    <path d="M12 16l3.5 4.5M15.5 20.5l4-3.5M12 16l7.5-.5" />
  </g>
  <circle cx="12" cy="16" r="2" fill="#0f172a" />
  <circle cx="15.5" cy="20.5" r="2" fill="#0f172a" />
  <circle cx="19.5" cy="15.5" r="2" fill="#0f172a" />
</svg>
