<svg xmlns="http://www.w3.org/2000/svg" width="300" height="56" viewBox="0 0 300 56" fill="none" role="img" aria-label="Knowledge RAG">
  <title>Knowledge RAG</title>
  <defs>
    <linearGradient id="kr-wordmark-grad" x1="7" y1="3" x2="25" y2="29" gradientUnits="userSpaceOnUse">
      <stop stop-color="#f59e0b" />
      <stop offset="1" stop-color="#fbbf24" />
    </linearGradient>
  </defs>

  <!-- logo mark -->
  <g transform="translate(10 10) scale(1.125)">
    <path d="M9 3h10.5L24 7.5V27a2 2 0 0 1-2 2H9a2 2 0 0 1-2-2V5a2 2 0 0 1 2-2z" fill="url(#kr-wordmark-grad)" />
    <path d="M19.5 3v4.5H24" fill="#fcd34d" opacity="0.85" />
    <g stroke="#0f172a" stroke-width="1.5" stroke-linecap="round">
      <path d="M12 13.5l3.5 4.5M15.5 18l4-3.5M12 13.5l7.5-.5" />
    </g>
    <circle cx="12" cy="13.5" r="2" fill="#0f172a" />
    <circle cx="15.5" cy="18" r="2" fill="#0f172a" />
    <circle cx="19.5" cy="13" r="2" fill="#0f172a" />
  </g>

  <!-- wordmark text -->
  <text
    x="58"
    y="39"
    font-family="Inter, system-ui, -apple-system, 'Segoe UI', sans-serif"
    font-size="26"
    font-weight="800"
    letter-spacing="-0.4"
    fill="#0f172a"
  >
    Knowledge<tspan fill="url(#kr-wordmark-grad)"> RAG</tspan>
  </text>
</svg>
